<svg xmlns="http://www.w3.org/2000/svg" viewBox="0 0 1200 520" role="img" aria-labelledby="title desc">
  <title id="title">What The Loop logo</title>
  <desc id="desc">Brush-style infinity loop with a w on the left and an l on the right.</desc>
  <g fill="none" stroke="#000" stroke-linecap="round" stroke-linejoin="round">
    <path
      d="M214 291
         C183 243 185 178 216 136
         C244 98 279 99 281 140
         C283 181 264 224 261 259
         C257 305 267 351 317 372
         C397 404 520 339 672 211
         C816 90 917 77 1002 121
         C1069 156 1097 237 1084 307
         C1070 379 1013 428 947 430
         C892 432 833 398 767 346
         C699 292 640 270 588 280
         C542 289 488 328 431 359
         C355 399 276 393 230 352
         C209 333 198 313 194 296"
      stroke-width="18"
    />
    <path
      d="M230 297
         C201 250 202 188 228 151
         C248 123 271 123 271 156
         C271 185 255 225 252 260
         C247 317 264 343 309 359
         C382 386 500 322 651 196
         C808 65 924 56 1017 107
         C1092 148 1120 240 1104 319
         C1088 397 1024 451 941 452
         C872 453 803 412 733 354
         C682 313 633 288 589 297
         C530 309 481 344 428 372
         C347 415 260 407 212 362"
      stroke-width="9"
      opacity="0.95"
    />
    <path
      d="M316 203
         C307 246 311 293 323 326
         C335 358 354 360 369 328
         L388 287
         L409 333
         C425 368 446 364 454 329
         C459 305 454 272 445 243"
      stroke-width="18"
    />
    <path
      d="M612 122
         C661 136 712 162 765 208"
      stroke-width="11"
    />
    <path
      d="M576 134
         C637 145 694 178 747 225"
      stroke-width="7"
      opacity="0.95"
    />
    <path
      d="M755 200
         C739 262 739 313 748 341
         C755 363 779 367 802 347
         C835 318 865 302 909 293"
      stroke-width="18"
    />
  </g>
</svg>
